# xmcd CD database file
#
# Track frame offsets:
#	150
#	18885
#	38155
#	56717
#	71337
#	88490
#	104932
#
# Disc length: 1680 seconds
#
# Revision: 0
# Processed by: cddbd v1.5.1PL0 Copyright (c) Steve Scherf et al.
# Submitted via: CDex 1.51
#
DISCID=60068e07
DTITLE=European Jazz Trio - White Christmas
DYEAR=2003
DGENRE=Jazz
TTITLE0=White Christmas
TTITLE1=Have Yourself A Merry Little Christmas
TTITLE2=Christmas Song
TTITLE3=Silent Night
TTITLE4=Let It Snow! Let It Snow! Let It Snow!
TTITLE5=Santa Claus Is Coming To Town
TTITLE6=It's The Most Wonderful Time Of The Year
EXTD=YEAR: 2003
EXTT0=
EXTT1=
EXTT2=
EXTT3=
EXTT4=
EXTT5=
EXTT6=
PLAYORDER=
